<?xml version="1.0" encoding="UTF-8" standalone="no"?><svg xmlns="http://www.w3.org/2000/svg" xmlns:xlink="http://www.w3.org/1999/xlink" contentScriptType="application/ecmascript" contentStyleType="text/css" height="634px" preserveAspectRatio="none" style="width:1568px;height:634px;" version="1.1" viewBox="0 0 1568 634" width="1568px" zoomAndPan="magnify"><defs><filter height="300%" id="f12ubto7vw8533" width="300%" x="-1" y="-1"><feGaussianBlur result="blurOut" stdDeviation="2.0"/><feColorMatrix in="blurOut" result="blurOut2" type="matrix" values="0 0 0 0 0 0 0 0 0 0 0 0 0 0 0 0 0 0 .4 0"/><feOffset dx="4.0" dy="4.0" in="blurOut2" result="blurOut3"/><feBlend in="SourceGraphic" in2="blurOut3" mode="normal"/></filter></defs><g><!--MD5=[8f15c74ff5ca8438f0372395deb8aebf]
cluster DLT Infrastructure--><polygon fill="#FFFFFF" filter="url(#f12ubto7vw8533)" points="407,184.5,540,184.5,547,209.5679,919,209.5679,919,622,407,622,407,184.5" style="stroke: #000000; stroke-width: 1.5;"/><line style="stroke: #000000; stroke-width: 1.5;" x1="407" x2="547" y1="209.5679" y2="209.5679"/><text fill="#000000" font-family="sans-serif" font-size="14" font-weight="bold" lengthAdjust="spacingAndGlyphs" textLength="127" x="411" y="201.4659">DLT Infrastructure</text><!--MD5=[53bf93447c070d86ffdb834a869d7c99]
cluster Telco Participants (Equal Peers)--><polygon fill="#FFFFFF" filter="url(#f12ubto7vw8533)" points="943,358.5,1166,358.5,1173,383.5679,1461,383.5679,1461,451.5,943,451.5,943,358.5" style="stroke: #000000; stroke-width: 1.5;"/><line style="stroke: #000000; stroke-width: 1.5;" x1="943" x2="1173" y1="383.5679" y2="383.5679"/><text fill="#000000" font-family="sans-serif" font-size="14" font-weight="bold" lengthAdjust="spacingAndGlyphs" textLength="217" x="947" y="375.4659">Telco Participants (Equal Peers)</text><!--MD5=[9a6fcd32caf378eeeb4d3c206c5932ac]
cluster Distributed Audit Committee--><polygon fill="#FFFFFF" filter="url(#f12ubto7vw8533)" points="968,510,1176,510,1183,535.0679,1436,535.0679,1436,622,968,622,968,510" style="stroke: #000000; stroke-width: 1.5;"/><line style="stroke: #000000; stroke-width: 1.5;" x1="968" x2="1183" y1="535.0679" y2="535.0679"/><text fill="#000000" font-family="sans-serif" font-size="14" font-weight="bold" lengthAdjust="spacingAndGlyphs" textLength="202" x="972" y="526.9659">Distributed Audit Committee</text><!--MD5=[664922e6c1091bfe3e046cd0881c0ebb]
entity TelcoGovernance.sol--><rect fill="#FEFECE" filter="url(#f12ubto7vw8533)" height="58.1358" style="stroke: #A80036; stroke-width: 1.5;" width="158" x="646" y="222.5"/><rect fill="#FEFECE" height="5" style="stroke: #A80036; stroke-width: 1.5;" width="10" x="641" y="227.5"/><rect fill="#FEFECE" height="5" style="stroke: #A80036; stroke-width: 1.5;" width="10" x="641" y="270.6358"/><text fill="#000000" font-family="sans-serif" font-size="14" font-style="italic" lengthAdjust="spacingAndGlyphs" textLength="106" x="672" y="247.4659">«SmartContract»</text><text fill="#000000" font-family="sans-serif" font-size="14" lengthAdjust="spacingAndGlyphs" textLength="138" x="656" y="266.5339">TelcoGovernance.sol</text><!--MD5=[2c3ad669659887efa9be80ec158572d2]
entity AuditLog.sol--><rect fill="#FEFECE" filter="url(#f12ubto7vw8533)" height="58.1358" style="stroke: #A80036; stroke-width: 1.5;" width="103" x="423.5" y="387"/><rect fill="#FEFECE" height="5" style="stroke: #A80036; stroke-width: 1.5;" width="10" x="418.5" y="392"/><rect fill="#FEFECE" height="5" style="stroke: #A80036; stroke-width: 1.5;" width="10" x="418.5" y="435.1358"/><text fill="#000000" font-family="sans-serif" font-size="14" font-style="italic" lengthAdjust="spacingAndGlyphs" textLength="60" x="445" y="411.9659">«Library»</text><text fill="#000000" font-family="sans-serif" font-size="14" lengthAdjust="spacingAndGlyphs" textLength="83" x="433.5" y="431.0339">AuditLog.sol</text><!--MD5=[724796cabc09da7e0b7fe90b7cd4b015]
entity IdentityRegistry.sol--><rect fill="#FEFECE" filter="url(#f12ubto7vw8533)" height="58.1358" style="stroke: #A80036; stroke-width: 1.5;" width="150" x="562" y="387"/><rect fill="#FEFECE" height="5" style="stroke: #A80036; stroke-width: 1.5;" width="10" x="557" y="392"/><rect fill="#FEFECE" height="5" style="stroke: #A80036; stroke-width: 1.5;" width="10" x="557" y="435.1358"/><text fill="#000000" font-family="sans-serif" font-size="14" font-style="italic" lengthAdjust="spacingAndGlyphs" textLength="106" x="584" y="411.9659">«SmartContract»</text><text fill="#000000" font-family="sans-serif" font-size="14" lengthAdjust="spacingAndGlyphs" textLength="130" x="572" y="431.0339">IdentityRegistry.sol</text><!--MD5=[045e6083b188fe911af4ecc63df33000]
entity AuditAggregator.sol--><rect fill="#FEFECE" filter="url(#f12ubto7vw8533)" height="58.1358" style="stroke: #A80036; stroke-width: 1.5;" width="156" x="747" y="387"/><rect fill="#FEFECE" height="5" style="stroke: #A80036; stroke-width: 1.5;" width="10" x="742" y="392"/><rect fill="#FEFECE" height="5" style="stroke: #A80036; stroke-width: 1.5;" width="10" x="742" y="435.1358"/><text fill="#000000" font-family="sans-serif" font-size="14" font-style="italic" lengthAdjust="spacingAndGlyphs" textLength="106" x="772" y="411.9659">«SmartContract»</text><text fill="#000000" font-family="sans-serif" font-size="14" lengthAdjust="spacingAndGlyphs" textLength="136" x="757" y="431.0339">AuditAggregator.sol</text><!--MD5=[4f461baf1fa3c4ab0b237dc46725d773]
entity DLT Ledger--><rect fill="#FEFECE" filter="url(#f12ubto7vw8533)" height="58.1358" style="stroke: #A80036; stroke-width: 1.5;" width="101" x="519.5" y="548"/><rect fill="#FEFECE" height="5" style="stroke: #A80036; stroke-width: 1.5;" width="10" x="514.5" y="553"/><rect fill="#FEFECE" height="5" style="stroke: #A80036; stroke-width: 1.5;" width="10" x="514.5" y="596.1358"/><text fill="#000000" font-family="sans-serif" font-size="14" font-style="italic" lengthAdjust="spacingAndGlyphs" textLength="81" x="529.5" y="572.9659">«Blockchain»</text><text fill="#000000" font-family="sans-serif" font-size="14" lengthAdjust="spacingAndGlyphs" textLength="76" x="532" y="592.0339">DLT Ledger</text><!--MD5=[fd71a92e557455a7c2917ad9c909bc05]
entity Governance Gateway--><rect fill="#FEFECE" filter="url(#f12ubto7vw8533)" height="39.0679" style="stroke: #A80036; stroke-width: 1.5;" width="161" x="1283.5" y="396.5"/><rect fill="#FEFECE" height="5" style="stroke: #A80036; stroke-width: 1.5;" width="10" x="1278.5" y="401.5"/><rect fill="#FEFECE" height="5" style="stroke: #A80036; stroke-width: 1.5;" width="10" x="1278.5" y="425.5679"/><text fill="#000000" font-family="sans-serif" font-size="14" lengthAdjust="spacingAndGlyphs" textLength="141" x="1293.5" y="421.4659">Governance Gateway</text><!--MD5=[8d3af62c13e3c4b9785fe2353912fbd9]
entity Validator Node--><rect fill="#FEFECE" filter="url(#f12ubto7vw8533)" height="39.0679" style="stroke: #A80036; stroke-width: 1.5;" width="120" x="1128" y="396.5"/><rect fill="#FEFECE" height="5" style="stroke: #A80036; stroke-width: 1.5;" width="10" x="1123" y="401.5"/><rect fill="#FEFECE" height="5" style="stroke: #A80036; stroke-width: 1.5;" width="10" x="1123" y="425.5679"/><text fill="#000000" font-family="sans-serif" font-size="14" lengthAdjust="spacingAndGlyphs" textLength="100" x="1138" y="421.4659">Validator Node</text><!--MD5=[9561905044533c3731c78e6f80118b43]
entity MPC Key Storage--><rect fill="#FEFECE" filter="url(#f12ubto7vw8533)" height="39.0679" style="stroke: #A80036; stroke-width: 1.5;" width="134" x="959" y="396.5"/><rect fill="#FEFECE" height="5" style="stroke: #A80036; stroke-width: 1.5;" width="10" x="954" y="401.5"/><rect fill="#FEFECE" height="5" style="stroke: #A80036; stroke-width: 1.5;" width="10" x="954" y="425.5679"/><text fill="#000000" font-family="sans-serif" font-size="14" lengthAdjust="spacingAndGlyphs" textLength="114" x="969" y="421.4659">MPC Key Storage</text><!--MD5=[3e657f97fe7a0b0c1e4fe53cb60e02c0]
entity Auditor Node 1--><rect fill="#FEFECE" filter="url(#f12ubto7vw8533)" height="58.1358" style="stroke: #A80036; stroke-width: 1.5;" width="122" x="984" y="548"/><rect fill="#FEFECE" height="5" style="stroke: #A80036; stroke-width: 1.5;" width="10" x="979" y="553"/><rect fill="#FEFECE" height="5" style="stroke: #A80036; stroke-width: 1.5;" width="10" x="979" y="596.1358"/><text fill="#000000" font-family="sans-serif" font-size="14" font-style="italic" lengthAdjust="spacingAndGlyphs" textLength="73" x="1008.5" y="572.9659">«Validator»</text><text fill="#000000" font-family="sans-serif" font-size="14" lengthAdjust="spacingAndGlyphs" textLength="102" x="994" y="592.0339">Auditor Node 1</text><!--MD5=[04c6b4b77b32bbe98feb24b9956375e7]
entity Auditor Node 2--><rect fill="#FEFECE" filter="url(#f12ubto7vw8533)" height="58.1358" style="stroke: #A80036; stroke-width: 1.5;" width="122" x="1141" y="548"/><rect fill="#FEFECE" height="5" style="stroke: #A80036; stroke-width: 1.5;" width="10" x="1136" y="553"/><rect fill="#FEFECE" height="5" style="stroke: #A80036; stroke-width: 1.5;" width="10" x="1136" y="596.1358"/><text fill="#000000" font-family="sans-serif" font-size="14" font-style="italic" lengthAdjust="spacingAndGlyphs" textLength="73" x="1165.5" y="572.9659">«Validator»</text><text fill="#000000" font-family="sans-serif" font-size="14" lengthAdjust="spacingAndGlyphs" textLength="102" x="1151" y="592.0339">Auditor Node 2</text><!--MD5=[f8fe058fcfbb11204d89820c3dc0f5a6]
entity Auditor Node 3--><rect fill="#FEFECE" filter="url(#f12ubto7vw8533)" height="58.1358" style="stroke: #A80036; stroke-width: 1.5;" width="122" x="1298" y="548"/><rect fill="#FEFECE" height="5" style="stroke: #A80036; stroke-width: 1.5;" width="10" x="1293" y="553"/><rect fill="#FEFECE" height="5" style="stroke: #A80036; stroke-width: 1.5;" width="10" x="1293" y="596.1358"/><text fill="#000000" font-family="sans-serif" font-size="14" font-style="italic" lengthAdjust="spacingAndGlyphs" textLength="73" x="1322.5" y="572.9659">«Validator»</text><text fill="#000000" font-family="sans-serif" font-size="14" lengthAdjust="spacingAndGlyphs" textLength="102" x="1308" y="592.0339">Auditor Node 3</text><!--MD5=[dbf615007306b7a307774a623f28d4b1]
entity Partner--><ellipse cx="1266" cy="219" fill="#FEFECE" filter="url(#f12ubto7vw8533)" rx="8" ry="8" style="stroke: #A80036; stroke-width: 1.5;"/><path d="M1266,227 L1266,254 M1253,235 L1279,235 M1266,254 L1253,269 M1266,254 L1279,269 " fill="none" filter="url(#f12ubto7vw8533)" style="stroke: #A80036; stroke-width: 1.5;"/><text fill="#000000" font-family="sans-serif" font-size="14" lengthAdjust="spacingAndGlyphs" textLength="91" x="1220.5" y="289.4659">New Member</text><!--MD5=[047e8bc101ee824e920a8946cdfffd9f]
entity Validator--><ellipse cx="725" cy="45" fill="#FEFECE" filter="url(#f12ubto7vw8533)" rx="8" ry="8" style="stroke: #A80036; stroke-width: 1.5;"/><path d="M725,53 L725,80 M712,61 L738,61 M725,80 L712,95 M725,80 L738,95 " fill="none" filter="url(#f12ubto7vw8533)" style="stroke: #A80036; stroke-width: 1.5;"/><text fill="#000000" font-family="sans-serif" font-size="14" lengthAdjust="spacingAndGlyphs" textLength="60" x="695" y="115.4659">Validator</text><!--MD5=[f36b681f1568c85a1e29d94d0cd105c7]
entity Reader--><ellipse cx="62" cy="219" fill="#FEFECE" filter="url(#f12ubto7vw8533)" rx="8" ry="8" style="stroke: #A80036; stroke-width: 1.5;"/><path d="M62,227 L62,254 M49,235 L75,235 M62,254 L49,269 M62,254 L75,269 " fill="none" filter="url(#f12ubto7vw8533)" style="stroke: #A80036; stroke-width: 1.5;"/><text fill="#000000" font-family="sans-serif" font-size="14" lengthAdjust="spacingAndGlyphs" textLength="112" x="6" y="289.4659">Onboarded User</text><path d="M153.5,237.5 L153.5,247.5 L118.19,251.5 L153.5,255.5 L153.5,265.206 A0,0 0 0 0 153.5,265.206 L390.5,265.206 A0,0 0 0 0 390.5,265.206 L390.5,247.5 L380.5,237.5 L153.5,237.5 A0,0 0 0 0 153.5,237.5 " fill="#FBFB77" filter="url(#f12ubto7vw8533)" style="stroke: #A80036; stroke-width: 1.0;"/><path d="M380.5,237.5 L380.5,247.5 L390.5,247.5 L380.5,237.5 " fill="#FBFB77" style="stroke: #A80036; stroke-width: 1.0;"/><text fill="#000000" font-family="sans-serif" font-size="13" lengthAdjust="spacingAndGlyphs" textLength="216" x="159.5" y="256.397">Access only if member is Onboarded</text><!--MD5=[363a7758fc53341cca5c361c8afa274a]
entity sol]--><rect fill="#FEFECE" filter="url(#f12ubto7vw8533)" height="39.0679" style="stroke: #A80036; stroke-width: 1.5;" width="44" x="790" y="58"/><rect fill="#FEFECE" height="5" style="stroke: #A80036; stroke-width: 1.5;" width="10" x="785" y="63"/><rect fill="#FEFECE" height="5" style="stroke: #A80036; stroke-width: 1.5;" width="10" x="785" y="87.0679"/><text fill="#000000" font-family="sans-serif" font-size="14" lengthAdjust="spacingAndGlyphs" textLength="24" x="800" y="82.9659">sol]</text><path d="M1174,46 L1174,109.118 L1416,109.118 L1416,56 L1406,46 L1174,46 " fill="#FBFB77" filter="url(#f12ubto7vw8533)" style="stroke: #A80036; stroke-width: 1.0;"/><path d="M1406,46 L1406,56 L1416,56 L1406,46 " fill="#FBFB77" style="stroke: #A80036; stroke-width: 1.0;"/><text fill="#000000" font-family="sans-serif" font-size="13" lengthAdjust="spacingAndGlyphs" textLength="216" x="1180" y="64.897">Collects MPC/FHE-based audit votes</text><text fill="#000000" font-family="sans-serif" font-size="13" lengthAdjust="spacingAndGlyphs" textLength="221" x="1180" y="82.603">Verifies threshold consensus (n-of-m)</text><text fill="#000000" font-family="sans-serif" font-size="13" lengthAdjust="spacingAndGlyphs" textLength="137" x="1180" y="100.309">Anchors result to chain</text><path d="M869.5,55 L869.5,73.5 L834.12,77.5 L869.5,81.5 L869.5,100.412 A0,0 0 0 0 869.5,100.412 L1138.5,100.412 A0,0 0 0 0 1138.5,100.412 L1138.5,65 L1128.5,55 L869.5,55 A0,0 0 0 0 869.5,55 " fill="#FBFB77" filter="url(#f12ubto7vw8533)" style="stroke: #A80036; stroke-width: 1.0;"/><path d="M1128.5,55 L1128.5,65 L1138.5,65 L1128.5,55 " fill="#FBFB77" style="stroke: #A80036; stroke-width: 1.0;"/><text fill="#000000" font-family="sans-serif" font-size="13" lengthAdjust="spacingAndGlyphs" textLength="248" x="875.5" y="73.897">- Fully decentralized validator governance</text><text fill="#000000" font-family="sans-serif" font-size="13" lengthAdjust="spacingAndGlyphs" textLength="200" x="875.5" y="91.603">- Audits by distributed committee</text><!--MD5=[35febcc09a99142a27a91330d3793ce4]
link Partner to Governance Gateway--><path d="M1303.69,293.78 C1311.28,303.17 1318.82,313.38 1325,323.5 C1338.24,345.19 1349.15,372.18 1356.03,391.21 " fill="none" id="Partner-&gt;Governance Gateway" style="stroke: #A80036; stroke-width: 1.0;"/><polygon fill="#A80036" points="1357.86,396.35,1358.6226,386.5307,1356.1892,391.6374,1351.0825,389.204,1357.86,396.35" style="stroke: #A80036; stroke-width: 1.0;"/><text fill="#000000" font-family="sans-serif" font-size="13" lengthAdjust="spacingAndGlyphs" textLength="183" x="1335" y="338.397">requestOnboarding(DID, x509)</text><!--MD5=[9ee03a6eda7985620e97614e1ef896db]
link Governance Gateway to TelcoGovernance.sol--><path d="M1343.23,396.35 C1324.53,380.85 1295.51,359.86 1266,350.5 C1213.87,333.96 1072.5,357.83 1020,342.5 C1004.12,337.86 1003.24,329.94 988,323.5 C930.29,299.12 861.87,280.96 809.29,269.11 " fill="none" id="Governance Gateway-&gt;TelcoGovernance.sol" style="stroke: #A80036; stroke-width: 1.0;"/><polygon fill="#A80036" points="804.26,267.98,812.1616,273.8591,809.1379,269.0782,813.9188,266.0545,804.26,267.98" style="stroke: #A80036; stroke-width: 1.0;"/><text fill="#000000" font-family="sans-serif" font-size="13" lengthAdjust="spacingAndGlyphs" textLength="99" x="1021" y="338.397">submitRequest()</text><!--MD5=[b248d1039c26daa7362e3c3a91323689]
link Validator to TelcoGovernance.sol--><path d="M725,119.7 C725,149.54 725,189.38 725,217.22 " fill="none" id="Validator-&gt;TelcoGovernance.sol" style="stroke: #A80036; stroke-width: 1.0;"/><polygon fill="#A80036" points="725,222.27,729,213.27,725,217.27,721,213.27,725,222.27" style="stroke: #A80036; stroke-width: 1.0;"/><text fill="#000000" font-family="sans-serif" font-size="13" lengthAdjust="spacingAndGlyphs" textLength="171" x="726" y="164.397">approve(), reject(), offboard()</text><!--MD5=[d0309043a4bd55870a1e06f7f4936032]
link TelcoGovernance.sol to AuditLog.sol--><path d="M664.85,280.57 C628.79,298.52 582.75,323.46 545,350.5 C531.48,360.18 517.78,372.22 506.12,383.26 " fill="none" id="TelcoGovernance.sol-&gt;AuditLog.sol" style="stroke: #A80036; stroke-width: 1.0;"/><polygon fill="#A80036" points="502.25,386.96,511.5187,383.6296,505.8632,383.5039,505.9889,377.8484,502.25,386.96" style="stroke: #A80036; stroke-width: 1.0;"/><text fill="#000000" font-family="sans-serif" font-size="13" lengthAdjust="spacingAndGlyphs" textLength="59" x="583" y="338.397">logAudit()</text><!--MD5=[da091c331f6edd21e5815efbf422347c]
link AuditLog.sol to DLT Ledger--><path d="M472.35,445.01 C472.08,460.21 473.68,478.92 481,494 C490.56,513.69 507.08,530.93 523.31,544.46 " fill="none" id="AuditLog.sol-&gt;DLT Ledger" style="stroke: #A80036; stroke-width: 1.0;"/><polygon fill="#A80036" points="527.42,547.82,522.9732,539.0322,523.5451,544.66,517.9173,545.232,527.42,547.82" style="stroke: #A80036; stroke-width: 1.0;"/><text fill="#000000" font-family="sans-serif" font-size="13" lengthAdjust="spacingAndGlyphs" textLength="70" x="482" y="489.897">recordLog()</text><!--MD5=[815a76ebce6c9791075c03ad71a12cbe]
reverse link TelcoGovernance.sol to IdentityRegistry.sol--><path d="M696.49,298.25 C691.53,306.57 686.52,315.24 682,323.5 C670.61,344.31 658.81,368.4 650.16,386.64 " fill="none" id="TelcoGovernance.sol&lt;-IdentityRegistry.sol" style="stroke: #A80036; stroke-width: 1.0;"/><polygon fill="none" points="690.7,294.31,707.06,280.84,702.66,301.57,690.7,294.31" style="stroke: #A80036; stroke-width: 1.0;"/><!--MD5=[382b75bf524f45ab011199780cd36d03]
link IdentityRegistry.sol to DLT Ledger--><path d="M591.21,445.04 C581.44,453.38 572.44,463.43 567,475 C557.16,495.93 558.25,522.09 561.62,542.54 " fill="none" id="IdentityRegistry.sol-&gt;DLT Ledger" style="stroke: #A80036; stroke-width: 1.0;"/><polygon fill="#A80036" points="562.52,547.61,564.8871,538.0498,561.647,542.6868,557.01,539.4467,562.52,547.61" style="stroke: #A80036; stroke-width: 1.0;"/><text fill="#000000" font-family="sans-serif" font-size="13" lengthAdjust="spacingAndGlyphs" textLength="89" x="568" y="489.897">store DID/x509</text><!--MD5=[738176d0217cf05dc4a9a32300cc62e5]
link Partner to IdentityRegistry.sol--><path d="M1220.21,283.45 C1182.43,308.85 1134.22,340.88 1129,342.5 C1086.65,355.63 772.18,336.84 730,350.5 C708.8,357.36 688.14,370.8 671.69,383.64 " fill="none" id="Partner-&gt;IdentityRegistry.sol" style="stroke: #A80036; stroke-width: 1.0;"/><polygon fill="#A80036" points="667.61,386.89,677.1433,384.4167,671.5227,383.777,672.1624,378.1564,667.61,386.89" style="stroke: #A80036; stroke-width: 1.0;"/><text fill="#000000" font-family="sans-serif" font-size="13" lengthAdjust="spacingAndGlyphs" textLength="154" x="1159" y="338.397">registerIdentity(did, x509)</text><!--MD5=[1787f795ac2a3fb8887fbc4e65d057f9]
link Reader to IdentityRegistry.sol--><path d="M118.06,286.07 C124,288.86 130.04,291.41 136,293.5 C257.25,336.13 293.36,327.42 421,342.5 C448.2,345.71 518.14,341.48 544,350.5 C564.87,357.78 585.35,371.11 601.76,383.77 " fill="none" id="Reader-&gt;IdentityRegistry.sol" style="stroke: #A80036; stroke-width: 1.0;"/><polygon fill="#A80036" points="605.84,386.97,601.2177,378.2732,601.9025,383.8885,596.2872,384.5732,605.84,386.97" style="stroke: #A80036; stroke-width: 1.0;"/><text fill="#000000" font-family="sans-serif" font-size="13" lengthAdjust="spacingAndGlyphs" textLength="127" x="422" y="338.397">readDID(), readX509()</text><!--MD5=[6ea0df3b89010a9dd28e0060206e78d4]
link TelcoGovernance.sol to AuditAggregator.sol--><path d="M717.18,280.85 C713.66,299.41 712.21,323.63 722,342.5 C723.7,345.78 752.36,365.84 779.02,384.02 " fill="none" id="TelcoGovernance.sol-&gt;AuditAggregator.sol" style="stroke: #A80036; stroke-width: 1.0;"/><polygon fill="#A80036" points="783.27,386.92,778.1062,378.5334,779.1452,384.094,773.5846,385.1331,783.27,386.92" style="stroke: #A80036; stroke-width: 1.0;"/><text fill="#000000" font-family="sans-serif" font-size="13" lengthAdjust="spacingAndGlyphs" textLength="119" x="723" y="338.397">emit AuditRequest()</text><!--MD5=[e71a4f5d080c0d3c0ca772efae67b406]
link AuditAggregator.sol to Auditor Node 1--><path d="M823.61,445.23 C824.42,461.87 828.52,481.97 842,494 C854.84,505.45 902.66,496.63 919,502 C948.84,511.8 979.28,529.42 1002.77,545.02 " fill="none" id="AuditAggregator.sol-&gt;Auditor Node 1" style="stroke: #A80036; stroke-width: 1.0;"/><polygon fill="#A80036" points="1007.07,547.9,1001.8201,539.567,1002.9163,545.1166,997.3667,546.2128,1007.07,547.9" style="stroke: #A80036; stroke-width: 1.0;"/><text fill="#000000" font-family="sans-serif" font-size="13" lengthAdjust="spacingAndGlyphs" textLength="76" x="843" y="489.897">request vote</text><!--MD5=[dfc5eeb7f8eaa9665bdc6756eac302a0]
link Auditor Node 1 to AuditAggregator.sol--><path d="M1014.29,547.93 C990.49,526.79 956.23,497.66 924,475 C910.49,465.5 895.34,456.07 881.04,447.66 " fill="none" id="Auditor Node 1-&gt;AuditAggregator.sol" style="stroke: #A80036; stroke-width: 1.0;"/><polygon fill="#A80036" points="876.63,445.08,882.3836,453.0735,880.9473,447.602,886.4188,446.1657,876.63,445.08" style="stroke: #A80036; stroke-width: 1.0;"/><text fill="#000000" font-family="sans-serif" font-size="13" lengthAdjust="spacingAndGlyphs" textLength="115" x="949" y="489.897">submit signed vote</text><!--MD5=[e296306709745f975aa9b44720bf4808]
link AuditAggregator.sol to Auditor Node 2--><path d="M894.72,445.06 C910.4,450.54 927.11,455.74 943,459.5 C999.63,472.89 1017.46,457.65 1073,475 C1097.48,482.65 1103.17,487.04 1124,502 C1141.04,514.24 1158.16,530.01 1172,543.84 " fill="none" id="AuditAggregator.sol-&gt;Auditor Node 2" style="stroke: #A80036; stroke-width: 1.0;"/><polygon fill="#A80036" points="1175.81,547.68,1172.3302,538.4664,1172.296,544.1231,1166.6392,544.0888,1175.81,547.68" style="stroke: #A80036; stroke-width: 1.0;"/><text fill="#000000" font-family="sans-serif" font-size="13" lengthAdjust="spacingAndGlyphs" textLength="76" x="1113" y="489.897">request vote</text><!--MD5=[66cab1f2714535ff139c506befa232d9]
link Auditor Node 2 to AuditAggregator.sol--><path d="M1210.07,547.61 C1214.65,524.83 1216.29,493.68 1198,475 C1178.14,454.72 970.8,465.23 943,459.5 C928.05,456.42 912.45,451.84 897.67,446.82 " fill="none" id="Auditor Node 2-&gt;AuditAggregator.sol" style="stroke: #A80036; stroke-width: 1.0;"/><polygon fill="#A80036" points="892.69,445.1,899.8969,451.8127,897.4175,446.7282,902.502,444.2488,892.69,445.1" style="stroke: #A80036; stroke-width: 1.0;"/><text fill="#000000" font-family="sans-serif" font-size="13" lengthAdjust="spacingAndGlyphs" textLength="115" x="1209" y="489.897">submit signed vote</text><!--MD5=[1df65f5ff7da92a24626f4352f265f8d]
link AuditAggregator.sol to Auditor Node 3--><path d="M891.7,445.02 C908.19,450.83 926.01,456.18 943,459.5 C985.56,467.81 1299.26,447.76 1333,475 C1352.78,490.97 1358.68,519.8 1359.98,542.58 " fill="none" id="AuditAggregator.sol-&gt;Auditor Node 3" style="stroke: #A80036; stroke-width: 1.0;"/><polygon fill="#A80036" points="1360.2,547.63,1363.8098,538.4665,1359.9853,542.6346,1355.8172,538.8101,1360.2,547.63" style="stroke: #A80036; stroke-width: 1.0;"/><text fill="#000000" font-family="sans-serif" font-size="13" lengthAdjust="spacingAndGlyphs" textLength="76" x="1347" y="489.897">request vote</text><!--MD5=[0e220ca263a86f7c842e80e21cb3c320]
link Auditor Node 3 to AuditAggregator.sol--><path d="M1400.86,547.99 C1427.69,526.74 1453.75,497.45 1432,475 C1413.09,455.48 969.7,464.6 943,459.5 C927.63,456.56 911.59,451.93 896.46,446.77 " fill="none" id="Auditor Node 3-&gt;AuditAggregator.sol" style="stroke: #A80036; stroke-width: 1.0;"/><polygon fill="#A80036" points="891.37,445.01,898.5588,451.7421,896.0931,446.6509,901.1843,444.1852,891.37,445.01" style="stroke: #A80036; stroke-width: 1.0;"/><text fill="#000000" font-family="sans-serif" font-size="13" lengthAdjust="spacingAndGlyphs" textLength="115" x="1441" y="489.897">submit signed vote</text><!--MD5=[86b54f1b34a075bd2e347f8526faae15]
link AuditAggregator.sol to DLT Ledger--><path d="M769.96,445.07 C752.78,454.23 733.9,464.7 717,475 C680.96,496.97 641.63,524.17 612.73,544.81 " fill="none" id="AuditAggregator.sol-&gt;DLT Ledger" style="stroke: #A80036; stroke-width: 1.0;"/><polygon fill="#A80036" points="608.54,547.81,618.1912,545.8466,612.6125,544.9092,613.5499,539.3306,608.54,547.81" style="stroke: #A80036; stroke-width: 1.0;"/><text fill="#000000" font-family="sans-serif" font-size="13" lengthAdjust="spacingAndGlyphs" textLength="102" x="718" y="489.897">write AuditResult</text><!--MD5=[ab7bd8cab7848959e5e05013d6ab2be8]
link sol] to GMN41--><path d="M824.92,57.78 C835.14,44.21 850.78,27.43 869.5,20.5 C925.56,-0.24 1079.63,10.11 1138.5,20.5 C1167.55,25.62 1198.29,35.71 1224.77,46 " fill="none" id="sol]-GMN41" style="stroke: #A80036; stroke-width: 1.0; stroke-dasharray: 7.0,7.0;"/><!--MD5=[d254bb5b755ec492aa33522f42dffc8d]
link TelcoGovernance.sol to MPC Key Storage--><path d="M772.83,280.7 C814.99,305.41 871.48,338.05 883,342.5 C898.29,348.4 903.78,344.41 919,350.5 C946.64,361.56 975.39,379.3 996.13,393.37 " fill="none" id="TelcoGovernance.sol-&gt;MPC Key Storage" style="stroke: #A80036; stroke-width: 1.0;"/><polygon fill="#A80036" points="1000.43,396.32,995.2662,387.9334,996.3052,393.494,990.7446,394.5331,1000.43,396.32" style="stroke: #A80036; stroke-width: 1.0;"/><text fill="#000000" font-family="sans-serif" font-size="13" lengthAdjust="spacingAndGlyphs" textLength="99" x="884" y="338.397">optional key ops</text><!--MD5=[88ae14c8ed6e002f86aebbd8c7334ba9]
@startuml
skinparam componentStyle rectangle

package "DLT Infrastructure" {
  [TelcoGovernance.sol] <<SmartContract>>
  [AuditLog.sol] <<Library>>
  [IdentityRegistry.sol] <<SmartContract>>
  [AuditAggregator.sol] <<SmartContract>>
  [DLT Ledger] <<Blockchain>>
}

package "Telco Participants (Equal Peers)" {
  [Governance Gateway]
  [Validator Node]
  [MPC Key Storage]
}

package "Distributed Audit Committee" {
  [Auditor Node 1] <<Validator>>
  [Auditor Node 2] <<Validator>>
  [Auditor Node 3] <<Validator>>
}

actor "New Member" as Partner
actor "Validator"
actor "Onboarded User" as Reader

Partner - -> [Governance Gateway] : requestOnboarding(DID, x509)
[Governance Gateway] - -> [TelcoGovernance.sol] : submitRequest()
Validator - -> [TelcoGovernance.sol] : approve(), reject(), offboard()
[TelcoGovernance.sol] - -> [AuditLog.sol] : logAudit()
[AuditLog.sol] - -> [DLT Ledger] : recordLog()

[TelcoGovernance.sol] <|- - [IdentityRegistry.sol]
[IdentityRegistry.sol] - -> [DLT Ledger] : store DID/x509
Partner - -> [IdentityRegistry.sol] : registerIdentity(did, x509)
Reader - -> [IdentityRegistry.sol] : readDID(), readX509()

note right of Reader
  Access only if member is Onboarded
end note

[TelcoGovernance.sol] - -> [AuditAggregator.sol] : emit AuditRequest()
[AuditAggregator.sol] - -> [Auditor Node 1] : request vote
[AuditAggregator.sol] - -> [Auditor Node 2] : request vote
[AuditAggregator.sol] - -> [Auditor Node 3] : request vote
[Auditor Node 1] - -> [AuditAggregator.sol] : submit signed vote
[Auditor Node 2] - -> [AuditAggregator.sol] : submit signed vote
[Auditor Node 3] - -> [AuditAggregator.sol] : submit signed vote
[AuditAggregator.sol] - -> [DLT Ledger] : write AuditResult

note right of [AuditAggregator.sol]
  Collects MPC/FHE-based audit votes
  Verifies threshold consensus (n-of-m)
  Anchors result to chain
end note

[TelcoGovernance.sol] - -> [MPC Key Storage] : optional key ops

note right of [TelcoGovernance.sol]
  - Fully decentralized validator governance
  - Audits by distributed committee
end note
@enduml

PlantUML version 1.2020.02(Sun Mar 01 11:22:07 CET 2020)
(GPL source distribution)
Java Runtime: OpenJDK Runtime Environment
JVM: OpenJDK 64-Bit Server VM
Java Version: 21.0.7+6-Ubuntu-0ubuntu125.04
Operating System: Linux
Default Encoding: UTF-8
Language: en
Country: US
--></g></svg>