<svg xmlns="http://www.w3.org/2000/svg" xmlns:xlink="http://www.w3.org/1999/xlink" contentStyleType="text/css" data-diagram-type="DESCRIPTION" height="403px" preserveAspectRatio="none" style="width:1645px;height:403px;background:#FFFFFF;" version="1.1" viewBox="0 0 1645 403" width="1645px" zoomAndPan="magnify"><defs/><g><!--cluster DLT Network--><g class="cluster" data-entity="DLT Network" data-source-line="3" data-uid="ent0002" id="cluster_DLT Network"><path d="M655.5,144.8 L758.1367,144.8 A3.75,3.75 0 0 1 760.6367,147.3 L767.6367,167.0969 L1369.5,167.0969 A2.5,2.5 0 0 1 1372,169.5969 L1372,393.89 A2.5,2.5 0 0 1 1369.5,396.39 L655.5,396.39 A2.5,2.5 0 0 1 653,393.89 L653,147.3 A2.5,2.5 0 0 1 655.5,144.8" fill="none" style="stroke:#000000;stroke-width:1.5;"/><line style="stroke:#000000;stroke-width:1.5;" x1="653" x2="767.6367" y1="167.0969" y2="167.0969"/><text fill="#000000" font-family="sans-serif" font-size="14" font-weight="bold" lengthAdjust="spacing" textLength="101.6367" x="657" y="159.7951">DLT Network</text></g><!--cluster Telco Partner--><g class="cluster" data-entity="Telco Partner" data-source-line="9" data-uid="ent0006" id="cluster_Telco Partner"><path d="M8.5,304.09 L115.8057,304.09 A3.75,3.75 0 0 1 118.3057,306.59 L125.3057,326.3869 L626.5,326.3869 A2.5,2.5 0 0 1 629,328.8869 L629,388.89 A2.5,2.5 0 0 1 626.5,391.39 L8.5,391.39 A2.5,2.5 0 0 1 6,388.89 L6,306.59 A2.5,2.5 0 0 1 8.5,304.09" fill="none" style="stroke:#000000;stroke-width:1.5;"/><line style="stroke:#000000;stroke-width:1.5;" x1="6" x2="125.3057" y1="326.3869" y2="326.3869"/><text fill="#000000" font-family="sans-serif" font-size="14" font-weight="bold" lengthAdjust="spacing" textLength="106.3057" x="10" y="319.0851">Telco Partner</text></g><!--cluster Trusted 3rd Party--><g class="cluster" data-entity="Trusted 3rd Party" data-source-line="15" data-uid="ent0010" id="cluster_Trusted 3rd Party"><path d="M1437.5,304.09 L1578.3086,304.09 A3.75,3.75 0 0 1 1580.8086,306.59 L1587.8086,326.3869 L1590.5,326.3869 A2.5,2.5 0 0 1 1593,328.8869 L1593,388.89 A2.5,2.5 0 0 1 1590.5,391.39 L1437.5,391.39 A2.5,2.5 0 0 1 1435,388.89 L1435,306.59 A2.5,2.5 0 0 1 1437.5,304.09" fill="none" style="stroke:#000000;stroke-width:1.5;"/><line style="stroke:#000000;stroke-width:1.5;" x1="1435" x2="1587.8086" y1="326.3869" y2="326.3869"/><text fill="#000000" font-family="sans-serif" font-size="14" font-weight="bold" lengthAdjust="spacing" textLength="139.8086" x="1439" y="319.0851">Trusted 3rd Party</text></g><!--entity Governance Smart Contract--><g class="entity" data-entity="Governance Smart Contract" data-source-line="4" data-uid="ent0003" id="entity_Governance Smart Contract"><rect fill="#F1F1F1" height="46.2969" rx="2.5" ry="2.5" style="stroke:#181818;stroke-width:0.5;" width="216.1777" x="935.91" y="179.8"/><text fill="#000000" font-family="sans-serif" font-size="14" font-style="italic" lengthAdjust="spacing" textLength="0" x="1043.9989" y="189.8">&#171;SmartContract&#187;</text><text fill="#000000" font-family="sans-serif" font-size="14" lengthAdjust="spacing" textLength="196.1777" x="945.91" y="212.7951">Governance Smart Contract</text></g><!--entity Compliance Contract--><g class="entity" data-entity="Compliance Contract" data-source-line="5" data-uid="ent0004" id="entity_Compliance Contract"><rect fill="#F1F1F1" height="46.2969" rx="2.5" ry="2.5" style="stroke:#181818;stroke-width:0.5;" width="167.082" x="669.46" y="334.09"/><text fill="#000000" font-family="sans-serif" font-size="14" font-style="italic" lengthAdjust="spacing" textLength="0" x="753.001" y="344.09">&#171;SmartContract&#187;</text><text fill="#000000" font-family="sans-serif" font-size="14" lengthAdjust="spacing" textLength="147.082" x="679.46" y="367.0851">Compliance Contract</text></g><!--entity DLT Ledger--><g class="entity" data-entity="DLT Ledger" data-source-line="6" data-uid="ent0005" id="entity_DLT Ledger"><rect fill="#F1F1F1" height="46.2969" rx="2.5" ry="2.5" style="stroke:#181818;stroke-width:0.5;" width="100.1377" x="1007.93" y="334.09"/><text fill="#000000" font-family="sans-serif" font-size="14" font-style="italic" lengthAdjust="spacing" textLength="0" x="1057.9988" y="344.09">&#171;Distributed Ledger&#187;</text><text fill="#000000" font-family="sans-serif" font-size="14" lengthAdjust="spacing" textLength="80.1377" x="1017.93" y="367.0851">DLT Ledger</text></g><!--entity Governance Gateway--><g class="entity" data-entity="Governance Gateway" data-source-line="10" data-uid="ent0007" id="entity_Governance Gateway"><rect fill="#F1F1F1" height="36.2969" rx="2.5" ry="2.5" style="stroke:#181818;stroke-width:0.5;" width="170.999" x="21.5" y="339.09"/><text fill="#000000" font-family="sans-serif" font-size="14" lengthAdjust="spacing" textLength="150.999" x="31.5" y="362.0851">Governance Gateway</text></g><!--entity Local Validator Node--><g class="entity" data-entity="Local Validator Node" data-source-line="11" data-uid="ent0008" id="entity_Local Validator Node"><rect fill="#F1F1F1" height="36.2969" rx="2.5" ry="2.5" style="stroke:#181818;stroke-width:0.5;" width="165.1816" x="227.41" y="339.09"/><text fill="#000000" font-family="sans-serif" font-size="14" lengthAdjust="spacing" textLength="145.1816" x="237.41" y="362.0851">Local Validator Node</text></g><!--entity MPC Key Shard Storage--><g class="entity" data-entity="MPC Key Shard Storage" data-source-line="12" data-uid="ent0009" id="entity_MPC Key Shard Storage"><rect fill="#F1F1F1" height="36.2969" rx="2.5" ry="2.5" style="stroke:#181818;stroke-width:0.5;" width="185.4844" x="427.26" y="339.09"/><text fill="#000000" font-family="sans-serif" font-size="14" lengthAdjust="spacing" textLength="165.4844" x="437.26" y="362.0851">MPC Key Shard Storage</text></g><!--entity Audit Authority--><g class="entity" data-entity="Audit Authority" data-source-line="16" data-uid="ent0011" id="entity_Audit Authority"><rect fill="#F1F1F1" height="36.2969" rx="2.5" ry="2.5" style="stroke:#181818;stroke-width:0.5;" width="125.9639" x="1451.02" y="339.09"/><text fill="#000000" font-family="sans-serif" font-size="14" lengthAdjust="spacing" textLength="105.9639" x="1461.02" y="362.0851">Audit Authority</text></g><!--entity Admin--><g class="entity" data-entity="Admin" data-source-line="19" data-uid="ent0012" id="entity_Admin"><ellipse cx="966.0003" cy="14" fill="#F1F1F1" rx="8" ry="8" style="stroke:#181818;stroke-width:0.5;"/><path d="M966.0003,22 L966.0003,49 M953.0003,30 L979.0003,30 M966.0003,49 L953.0003,64 M966.0003,49 L979.0003,64" fill="none" style="stroke:#181818;stroke-width:0.5;"/><text fill="#000000" font-family="sans-serif" font-size="14" lengthAdjust="spacing" textLength="137.0605" x="897.47" y="78.4951">Telco Owner/Admin</text></g><!--entity Partner--><g class="entity" data-entity="Partner" data-source-line="20" data-uid="ent0013" id="entity_Partner"><ellipse cx="106.9976" cy="173.3" fill="#F1F1F1" rx="8" ry="8" style="stroke:#181818;stroke-width:0.5;"/><path d="M106.9976,181.3 L106.9976,208.3 M93.9976,189.3 L119.9976,189.3 M106.9976,208.3 L93.9976,223.3 M106.9976,208.3 L119.9976,223.3" fill="none" style="stroke:#181818;stroke-width:0.5;"/><text fill="#000000" font-family="sans-serif" font-size="14" lengthAdjust="spacing" textLength="86.4951" x="63.75" y="237.7951">New Partner</text></g><!--entity Validator--><g class="entity" data-entity="Validator" data-source-line="21" data-uid="ent0014" id="entity_Validator"><ellipse cx="1122.0001" cy="14" fill="#F1F1F1" rx="8" ry="8" style="stroke:#181818;stroke-width:0.5;"/><path d="M1122.0001,22 L1122.0001,49 M1109.0001,30 L1135.0001,30 M1122.0001,49 L1109.0001,64 M1122.0001,49 L1135.0001,64" fill="none" style="stroke:#181818;stroke-width:0.5;"/><text fill="#000000" font-family="sans-serif" font-size="14" lengthAdjust="spacing" textLength="104.2002" x="1069.9" y="78.4951">Validator Node</text></g><g class="entity" data-entity="GMN25" data-source-line="41" data-uid="ent0026" id="entity_GMN25"><path d="M1387.64,175.25 L1387.64,198.94 L1152.59,202.94 L1387.64,206.94 L1387.64,230.6484 A0,0 0 0 0 1387.64,230.6484 L1586.368,230.6484 A0,0 0 0 0 1586.368,230.6484 L1586.368,185.25 L1576.368,175.25 L1387.64,175.25 A0,0 0 0 0 1387.64,175.25" fill="#FEFFDD" style="stroke:#181818;stroke-width:0.5;"/><path d="M1576.368,175.25 L1576.368,185.25 L1586.368,185.25 L1576.368,175.25" fill="#FEFFDD" style="stroke:#181818;stroke-width:0.5;"/><text fill="#000000" font-family="sans-serif" font-size="13" lengthAdjust="spacing" textLength="177.728" x="1393.64" y="192.3169">- Multisig approval tracking</text><text fill="#000000" font-family="sans-serif" font-size="13" lengthAdjust="spacing" textLength="123.0874" x="1393.64" y="207.4497">- Status transitions</text><text fill="#000000" font-family="sans-serif" font-size="13" lengthAdjust="spacing" textLength="98.8521" x="1393.64" y="222.5825">- Audit Logging</text></g><!--link Partner to Governance Gateway--><g class="link" data-entity-1="Partner" data-entity-2="Governance Gateway" data-source-line="24" data-uid="lnk15" id="link_Partner_Governance Gateway"><path d="M107,241.59 C107,272.6 107,309.16 107,332.73" fill="none" id="Partner-to-Governance Gateway" style="stroke:#181818;stroke-width:1;"/><polygon fill="#181818" points="107,338.73,111,329.73,107,333.73,103,329.73,107,338.73" style="stroke:#181818;stroke-width:1;"/><text fill="#000000" font-family="sans-serif" font-size="13" lengthAdjust="spacing" textLength="130.1777" x="108" y="284.1569">Onboarding request</text></g><!--link Governance Gateway to Governance Smart Contract--><g class="link" data-entity-1="Governance Gateway" data-entity-2="Governance Smart Contract" data-source-line="25" data-uid="lnk16" id="link_Governance Gateway_Governance Smart Contract"><path d="M130.61,338.65 C150.66,324.68 180.75,305.91 210,296.09 C243.94,284.7 711.7697,237.0463 929.7297,215.2763" fill="none" id="Governance Gateway-to-Governance Smart Contract" style="stroke:#181818;stroke-width:1;"/><polygon fill="#181818" points="935.7,214.68,926.347,211.5943,930.7248,215.1769,927.1421,219.5547,935.7,214.68" style="stroke:#181818;stroke-width:1;"/><text fill="#000000" font-family="sans-serif" font-size="13" lengthAdjust="spacing" textLength="136.189" x="390" y="284.1569">requestOnboarding()</text></g><!--link Validator to Governance Smart Contract--><g class="link" data-entity-1="Validator" data-entity-2="Governance Smart Contract" data-source-line="27" data-uid="lnk17" id="link_Validator_Governance Smart Contract"><path d="M1103.52,81.92 C1088.47,112.27 1070.3972,148.7254 1057.7872,174.1354" fill="none" id="Validator-to-Governance Smart Contract" style="stroke:#181818;stroke-width:1;"/><polygon fill="#181818" points="1055.12,179.51,1062.7038,173.2263,1057.3427,175.0312,1055.5377,169.67,1055.12,179.51" style="stroke:#181818;stroke-width:1;"/><text fill="#000000" font-family="sans-serif" font-size="13" lengthAdjust="spacing" textLength="243.8325" x="1088" y="124.8669">approveMember(), offboardMember()</text></g><!--link Governance Smart Contract to DLT Ledger--><g class="link" data-entity-1="Governance Smart Contract" data-entity-2="DLT Ledger" data-source-line="28" data-uid="lnk18" id="link_Governance Smart Contract_DLT Ledger"><path d="M1105.1,226.5 C1124.58,236.94 1143.94,251.47 1155,271.09 C1170.52,298.62 1144.911,319.0162 1113.921,334.1562" fill="none" id="Governance Smart Contract-to-DLT Ledger" style="stroke:#181818;stroke-width:1;"/><polygon fill="#181818" points="1108.53,336.79,1118.3724,336.4334,1113.0225,334.5952,1114.8607,329.2453,1108.53,336.79" style="stroke:#181818;stroke-width:1;"/><text fill="#000000" font-family="sans-serif" font-size="13" lengthAdjust="spacing" textLength="160.3608" x="1160" y="284.1569">Write DID/x509 + Status</text></g><!--link Governance Smart Contract to DLT Ledger--><g class="link" data-entity-1="Governance Smart Contract" data-entity-2="DLT Ledger" data-source-line="38" data-uid="lnk24" id="link_Governance Smart Contract_DLT Ledger"><path d="M935.61,225.9 C897.38,239 868.26,258.91 888,288.09 C914.55,327.33 961.872,342.9336 1001.732,349.9936" fill="none" id="Governance Smart Contract-to-DLT Ledger-1" style="stroke:#181818;stroke-width:1;"/><polygon fill="#181818" points="1007.64,351.04,999.4756,345.5317,1002.7166,350.168,998.0803,353.409,1007.64,351.04" style="stroke:#181818;stroke-width:1;"/><text fill="#000000" font-family="sans-serif" font-size="13" lengthAdjust="spacing" textLength="257.188" x="889" y="284.1569">Update Status (Onboarded/Offboarded)</text></g><!--link Governance Smart Contract to Compliance Contract--><g class="link" data-entity-1="Governance Smart Contract" data-entity-2="Compliance Contract" data-source-line="30" data-uid="lnk19" id="link_Governance Smart Contract_Compliance Contract"><path d="M935.5,212.12 C852.81,220.87 748.75,238.19 722,271.09 C707.11,289.4 716.7816,310.6444 730.2616,329.1044" fill="none" id="Governance Smart Contract-to-Compliance Contract" style="stroke:#181818;stroke-width:1;"/><polygon fill="#181818" points="733.8,333.95,731.7228,324.3227,730.8513,329.912,725.262,329.0405,733.8,333.95" style="stroke:#181818;stroke-width:1;"/><text fill="#000000" font-family="sans-serif" font-size="13" lengthAdjust="spacing" textLength="149.1509" x="723" y="284.1569">deploySmartContract()</text></g><!--link Governance Smart Contract to MPC Key Shard Storage--><g class="link" data-entity-1="Governance Smart Contract" data-entity-2="MPC Key Shard Storage" data-source-line="31" data-uid="lnk20" id="link_Governance Smart Contract_MPC Key Shard Storage"><path d="M935.58,210.4 C819.03,218.96 642.69,237.13 585,271.09 C557.91,287.04 541.0021,313.7032 530.7721,333.6132" fill="none" id="Governance Smart Contract-to-MPC Key Shard Storage" style="stroke:#181818;stroke-width:1;"/><polygon fill="#181818" points="528.03,338.95,535.701,332.7729,530.3151,334.5027,528.5853,329.1168,528.03,338.95" style="stroke:#181818;stroke-width:1;"/><text fill="#000000" font-family="sans-serif" font-size="13" lengthAdjust="spacing" textLength="121.7988" x="586" y="284.1569">KeyInit/KeyRevoke</text></g><!--link Governance Smart Contract to Audit Authority--><g class="link" data-entity-1="Governance Smart Contract" data-entity-2="Audit Authority" data-source-line="33" data-uid="lnk21" id="link_Governance Smart Contract_Audit Authority"><path d="M1152.36,224.14 C1206.19,235.52 1271.8,251.41 1329,271.09 C1384,290.02 1439.3736,317.0179 1475.7436,335.8779" fill="none" id="Governance Smart Contract-to-Audit Authority" style="stroke:#181818;stroke-width:1;"/><polygon fill="#181818" points="1481.07,338.64,1474.9217,330.9459,1476.6313,336.3383,1471.239,338.0478,1481.07,338.64" style="stroke:#181818;stroke-width:1;"/><text fill="#000000" font-family="sans-serif" font-size="13" lengthAdjust="spacing" textLength="115.7432" x="1371" y="284.1569">emit Audit Events</text></g><!--link Audit Authority to Governance Smart Contract--><g class="link" data-entity-1="Audit Authority" data-entity-2="Governance Smart Contract" data-source-line="34" data-uid="lnk22" id="link_Audit Authority_Governance Smart Contract"><path d="M1515.42,338.77 C1515.96,319.31 1513.52,288.33 1495,271.09 C1482.5,259.46 1287.7346,233.7167 1158.3246,217.7067" fill="none" id="Audit Authority-to-Governance Smart Contract" style="stroke:#181818;stroke-width:1;"/><polygon fill="#181818" points="1152.37,216.97,1160.8108,222.0447,1157.3322,217.5839,1161.793,214.1053,1152.37,216.97" style="stroke:#181818;stroke-width:1;"/><text fill="#000000" font-family="sans-serif" font-size="13" lengthAdjust="spacing" textLength="130.0889" x="1507" y="284.1569">publish Audit Result</text></g><!--link Admin to Governance Smart Contract--><g class="link" data-entity-1="Admin" data-entity-2="Governance Smart Contract" data-source-line="36" data-uid="lnk23" id="link_Admin_Governance Smart Contract"><path d="M962.02,82.04 C961.85,97.14 963.57,114.37 970,128.8 C978.97,148.93 991.5742,162.6588 1007.1542,175.5288" fill="none" id="Admin-to-Governance Smart Contract" style="stroke:#181818;stroke-width:1;"/><polygon fill="#181818" points="1011.78,179.35,1007.3887,170.5343,1007.9251,176.1657,1002.2938,176.7021,1011.78,179.35" style="stroke:#181818;stroke-width:1;"/><text fill="#000000" font-family="sans-serif" font-size="13" lengthAdjust="spacing" textLength="100.8135" x="971" y="124.8669">rejectMember()</text></g><!--SRC=[bLHDZzem4BtxLuoub5MBg5JrKBH2Gb2jKFbOBTlsK74myMnmIUpKda2Zgl-zus2MXKL0Jx7UFBzvzZp7hxGff9Cv93Olh453Cweo18S9IPDcA4GXavLC4Hg3qIDCa3RMhHhmHy2FExj6PwH946QvT0HzQyZ9XEPmUriZEw3RPNgVMsIwffydXaOZL2cwK1zeJqulIa8LKIRzVU7h4RF4mZsh67IldDr9mesiveoER28p-2OphIHP1nEhCE3Z-pvymGfcI-aKpBZ4klF37gxqmS079eHErRPFhrIQe5VIqZfDLRs7Jy7QqTLqmvxQFPLhqm3feLxjA1FSx6rpCQvtvKEZDUCP4k8D30rXk3DjZHTnBxHQtPF7XmvCpSBo0RL9URo_IlGaJZAF9OvdszbjtmisRuJOsxqi88l2SNsC-G9Ty-OTsAUdMck7Y7FxQ_sN8Ud0Txv-XC5mqFxzyVqdUCjJb5HwSLddP2exeB38R7MGpMjSdOuIwp4uD9hQ_7t0jLtX5TQEqyKocDT8m3-l-RLwyPfr-VgBSf5flun23-ZBZ8IeitdLz7_ot-5vKlyxggy5fmJZWA0PGuIgFOqPGCMYnZB7wNH9d8rpXWH02yPy0Err6eF5hpmK-UUMrkNOYp7ZzVQz17Xx_95Dqq14eo1q_GS0]--></g></svg>