<?xml version="1.0" encoding="UTF-8" standalone="no"?><svg xmlns="http://www.w3.org/2000/svg" xmlns:xlink="http://www.w3.org/1999/xlink" contentScriptType="application/ecmascript" contentStyleType="text/css" height="583px" preserveAspectRatio="none" style="width:1394px;height:583px;" version="1.1" viewBox="0 0 1394 583" width="1394px" zoomAndPan="magnify"><defs><filter height="300%" id="f1kt1bwvz9l2au" width="300%" x="-1" y="-1"><feGaussianBlur result="blurOut" stdDeviation="2.0"/><feColorMatrix in="blurOut" result="blurOut2" type="matrix" values="0 0 0 0 0 0 0 0 0 0 0 0 0 0 0 0 0 0 .4 0"/><feOffset dx="4.0" dy="4.0" in="blurOut2" result="blurOut3"/><feBlend in="SourceGraphic" in2="blurOut3" mode="normal"/></filter></defs><g><!--MD5=[8f15c74ff5ca8438f0372395deb8aebf]
cluster DLT Infrastructure--><polygon fill="#FFFFFF" filter="url(#f1kt1bwvz9l2au)" points="397,157.5,530,157.5,537,182.5679,718,182.5679,718,571,397,571,397,157.5" style="stroke: #000000; stroke-width: 1.5;"/><line style="stroke: #000000; stroke-width: 1.5;" x1="397" x2="537" y1="182.5679" y2="182.5679"/><text fill="#000000" font-family="sans-serif" font-size="14" font-weight="bold" lengthAdjust="spacingAndGlyphs" textLength="127" x="401" y="174.4659">DLT Infrastructure</text><!--MD5=[53bf93447c070d86ffdb834a869d7c99]
cluster Telco Participants (Equal Peers)--><polygon fill="#FFFFFF" filter="url(#f1kt1bwvz9l2au)" points="742,331.5,965,331.5,972,356.5679,1260,356.5679,1260,424.5,742,424.5,742,331.5" style="stroke: #000000; stroke-width: 1.5;"/><line style="stroke: #000000; stroke-width: 1.5;" x1="742" x2="972" y1="356.5679" y2="356.5679"/><text fill="#000000" font-family="sans-serif" font-size="14" font-weight="bold" lengthAdjust="spacingAndGlyphs" textLength="217" x="746" y="348.4659">Telco Participants (Equal Peers)</text><!--MD5=[e38532bcc921f431938467457a6e34ca]
cluster Independent Auditor--><polygon fill="#FFFFFF" filter="url(#f1kt1bwvz9l2au)" points="211,331.5,363,331.5,370,356.5679,373,356.5679,373,424.5,211,424.5,211,331.5" style="stroke: #000000; stroke-width: 1.5;"/><line style="stroke: #000000; stroke-width: 1.5;" x1="211" x2="370" y1="356.5679" y2="356.5679"/><text fill="#000000" font-family="sans-serif" font-size="14" font-weight="bold" lengthAdjust="spacingAndGlyphs" textLength="146" x="215" y="348.4659">Independent Auditor</text><!--MD5=[664922e6c1091bfe3e046cd0881c0ebb]
entity TelcoGovernance.sol--><rect fill="#FEFECE" filter="url(#f1kt1bwvz9l2au)" height="58.1358" style="stroke: #A80036; stroke-width: 1.5;" width="158" x="534" y="195.5"/><rect fill="#FEFECE" height="5" style="stroke: #A80036; stroke-width: 1.5;" width="10" x="529" y="200.5"/><rect fill="#FEFECE" height="5" style="stroke: #A80036; stroke-width: 1.5;" width="10" x="529" y="243.6358"/><text fill="#000000" font-family="sans-serif" font-size="14" font-style="italic" lengthAdjust="spacingAndGlyphs" textLength="106" x="560" y="220.4659">«SmartContract»</text><text fill="#000000" font-family="sans-serif" font-size="14" lengthAdjust="spacingAndGlyphs" textLength="138" x="544" y="239.5339">TelcoGovernance.sol</text><!--MD5=[2c3ad669659887efa9be80ec158572d2]
entity AuditLog.sol--><rect fill="#FEFECE" filter="url(#f1kt1bwvz9l2au)" height="58.1358" style="stroke: #A80036; stroke-width: 1.5;" width="103" x="413.5" y="360"/><rect fill="#FEFECE" height="5" style="stroke: #A80036; stroke-width: 1.5;" width="10" x="408.5" y="365"/><rect fill="#FEFECE" height="5" style="stroke: #A80036; stroke-width: 1.5;" width="10" x="408.5" y="408.1358"/><text fill="#000000" font-family="sans-serif" font-size="14" font-style="italic" lengthAdjust="spacingAndGlyphs" textLength="60" x="435" y="384.9659">«Library»</text><text fill="#000000" font-family="sans-serif" font-size="14" lengthAdjust="spacingAndGlyphs" textLength="83" x="423.5" y="404.0339">AuditLog.sol</text><!--MD5=[724796cabc09da7e0b7fe90b7cd4b015]
entity IdentityRegistry.sol--><rect fill="#FEFECE" filter="url(#f1kt1bwvz9l2au)" height="58.1358" style="stroke: #A80036; stroke-width: 1.5;" width="150" x="552" y="360"/><rect fill="#FEFECE" height="5" style="stroke: #A80036; stroke-width: 1.5;" width="10" x="547" y="365"/><rect fill="#FEFECE" height="5" style="stroke: #A80036; stroke-width: 1.5;" width="10" x="547" y="408.1358"/><text fill="#000000" font-family="sans-serif" font-size="14" font-style="italic" lengthAdjust="spacingAndGlyphs" textLength="106" x="574" y="384.9659">«SmartContract»</text><text fill="#000000" font-family="sans-serif" font-size="14" lengthAdjust="spacingAndGlyphs" textLength="130" x="562" y="404.0339">IdentityRegistry.sol</text><!--MD5=[4f461baf1fa3c4ab0b237dc46725d773]
entity DLT Ledger--><rect fill="#FEFECE" filter="url(#f1kt1bwvz9l2au)" height="58.1358" style="stroke: #A80036; stroke-width: 1.5;" width="180" x="413" y="497"/><rect fill="#FEFECE" height="5" style="stroke: #A80036; stroke-width: 1.5;" width="10" x="408" y="502"/><rect fill="#FEFECE" height="5" style="stroke: #A80036; stroke-width: 1.5;" width="10" x="408" y="545.1358"/><text fill="#000000" font-family="sans-serif" font-size="14" font-style="italic" lengthAdjust="spacingAndGlyphs" textLength="160" x="423" y="521.9659">«DistributedLedgerNode»</text><text fill="#000000" font-family="sans-serif" font-size="14" lengthAdjust="spacingAndGlyphs" textLength="76" x="465" y="541.0339">DLT Ledger</text><!--MD5=[fd71a92e557455a7c2917ad9c909bc05]
entity Governance Gateway--><rect fill="#FEFECE" filter="url(#f1kt1bwvz9l2au)" height="39.0679" style="stroke: #A80036; stroke-width: 1.5;" width="161" x="1082.5" y="369.5"/><rect fill="#FEFECE" height="5" style="stroke: #A80036; stroke-width: 1.5;" width="10" x="1077.5" y="374.5"/><rect fill="#FEFECE" height="5" style="stroke: #A80036; stroke-width: 1.5;" width="10" x="1077.5" y="398.5679"/><text fill="#000000" font-family="sans-serif" font-size="14" lengthAdjust="spacingAndGlyphs" textLength="141" x="1092.5" y="394.4659">Governance Gateway</text><!--MD5=[8d3af62c13e3c4b9785fe2353912fbd9]
entity Validator Node--><rect fill="#FEFECE" filter="url(#f1kt1bwvz9l2au)" height="39.0679" style="stroke: #A80036; stroke-width: 1.5;" width="120" x="927" y="369.5"/><rect fill="#FEFECE" height="5" style="stroke: #A80036; stroke-width: 1.5;" width="10" x="922" y="374.5"/><rect fill="#FEFECE" height="5" style="stroke: #A80036; stroke-width: 1.5;" width="10" x="922" y="398.5679"/><text fill="#000000" font-family="sans-serif" font-size="14" lengthAdjust="spacingAndGlyphs" textLength="100" x="937" y="394.4659">Validator Node</text><!--MD5=[9561905044533c3731c78e6f80118b43]
entity MPC Key Storage--><rect fill="#FEFECE" filter="url(#f1kt1bwvz9l2au)" height="39.0679" style="stroke: #A80036; stroke-width: 1.5;" width="134" x="758" y="369.5"/><rect fill="#FEFECE" height="5" style="stroke: #A80036; stroke-width: 1.5;" width="10" x="753" y="374.5"/><rect fill="#FEFECE" height="5" style="stroke: #A80036; stroke-width: 1.5;" width="10" x="753" y="398.5679"/><text fill="#000000" font-family="sans-serif" font-size="14" lengthAdjust="spacingAndGlyphs" textLength="114" x="768" y="394.4659">MPC Key Storage</text><!--MD5=[1f06c2bbcf7b7f92424198ea033314db]
entity Audit Authority--><rect fill="#FEFECE" filter="url(#f1kt1bwvz9l2au)" height="39.0679" style="stroke: #A80036; stroke-width: 1.5;" width="122" x="235" y="369.5"/><rect fill="#FEFECE" height="5" style="stroke: #A80036; stroke-width: 1.5;" width="10" x="230" y="374.5"/><rect fill="#FEFECE" height="5" style="stroke: #A80036; stroke-width: 1.5;" width="10" x="230" y="398.5679"/><text fill="#000000" font-family="sans-serif" font-size="14" lengthAdjust="spacingAndGlyphs" textLength="102" x="245" y="394.4659">Audit Authority</text><!--MD5=[dbf615007306b7a307774a623f28d4b1]
entity Partner--><ellipse cx="1065" cy="192" fill="#FEFECE" filter="url(#f1kt1bwvz9l2au)" rx="8" ry="8" style="stroke: #A80036; stroke-width: 1.5;"/><path d="M1065,200 L1065,227 M1052,208 L1078,208 M1065,227 L1052,242 M1065,227 L1078,242 " fill="none" filter="url(#f1kt1bwvz9l2au)" style="stroke: #A80036; stroke-width: 1.5;"/><text fill="#000000" font-family="sans-serif" font-size="14" lengthAdjust="spacingAndGlyphs" textLength="91" x="1019.5" y="262.4659">New Member</text><!--MD5=[047e8bc101ee824e920a8946cdfffd9f]
entity Validator--><ellipse cx="613" cy="18" fill="#FEFECE" filter="url(#f1kt1bwvz9l2au)" rx="8" ry="8" style="stroke: #A80036; stroke-width: 1.5;"/><path d="M613,26 L613,53 M600,34 L626,34 M613,53 L600,68 M613,53 L626,68 " fill="none" filter="url(#f1kt1bwvz9l2au)" style="stroke: #A80036; stroke-width: 1.5;"/><text fill="#000000" font-family="sans-serif" font-size="14" lengthAdjust="spacingAndGlyphs" textLength="60" x="583" y="88.4659">Validator</text><!--MD5=[f36b681f1568c85a1e29d94d0cd105c7]
entity Reader--><ellipse cx="62" cy="192" fill="#FEFECE" filter="url(#f1kt1bwvz9l2au)" rx="8" ry="8" style="stroke: #A80036; stroke-width: 1.5;"/><path d="M62,200 L62,227 M49,208 L75,208 M62,227 L49,242 M62,227 L75,242 " fill="none" filter="url(#f1kt1bwvz9l2au)" style="stroke: #A80036; stroke-width: 1.5;"/><text fill="#000000" font-family="sans-serif" font-size="14" lengthAdjust="spacingAndGlyphs" textLength="112" x="6" y="262.4659">Onboarded User</text><path d="M1146,202 L1146,220.5 L1110.86,224.5 L1146,228.5 L1146,247.412 A0,0 0 0 0 1146,247.412 L1382,247.412 A0,0 0 0 0 1382,247.412 L1382,212 L1372,202 L1146,202 A0,0 0 0 0 1146,202 " fill="#FBFB77" filter="url(#f1kt1bwvz9l2au)" style="stroke: #A80036; stroke-width: 1.0;"/><path d="M1372,202 L1372,212 L1382,212 L1372,202 " fill="#FBFB77" style="stroke: #A80036; stroke-width: 1.0;"/><text fill="#000000" font-family="sans-serif" font-size="13" lengthAdjust="spacingAndGlyphs" textLength="215" x="1152" y="220.897">Member generates DID/x.509 locally</text><text fill="#000000" font-family="sans-serif" font-size="13" lengthAdjust="spacingAndGlyphs" textLength="200" x="1152" y="238.603">Writes to ledger after onboarding</text><path d="M153,210.5 L153,220.5 L118.05,224.5 L153,228.5 L153,238.206 A0,0 0 0 0 153,238.206 L381,238.206 A0,0 0 0 0 381,238.206 L381,220.5 L371,210.5 L153,210.5 A0,0 0 0 0 153,210.5 " fill="#FBFB77" filter="url(#f1kt1bwvz9l2au)" style="stroke: #A80036; stroke-width: 1.0;"/><path d="M371,210.5 L371,220.5 L381,220.5 L371,210.5 " fill="#FBFB77" style="stroke: #A80036; stroke-width: 1.0;"/><text fill="#000000" font-family="sans-serif" font-size="13" lengthAdjust="spacingAndGlyphs" textLength="207" x="159" y="229.397">Access only if status == Onboarded</text><!--MD5=[363a7758fc53341cca5c361c8afa274a]
entity sol]--><rect fill="#FEFECE" filter="url(#f1kt1bwvz9l2au)" height="39.0679" style="stroke: #A80036; stroke-width: 1.5;" width="44" x="678" y="31"/><rect fill="#FEFECE" height="5" style="stroke: #A80036; stroke-width: 1.5;" width="10" x="673" y="36"/><rect fill="#FEFECE" height="5" style="stroke: #A80036; stroke-width: 1.5;" width="10" x="673" y="60.0679"/><text fill="#000000" font-family="sans-serif" font-size="14" lengthAdjust="spacingAndGlyphs" textLength="24" x="688" y="55.9659">sol]</text><path d="M757.5,28 L757.5,46.5 L722.3,50.5 L757.5,54.5 L757.5,73.412 A0,0 0 0 0 757.5,73.412 L988.5,73.412 A0,0 0 0 0 988.5,73.412 L988.5,38 L978.5,28 L757.5,28 A0,0 0 0 0 757.5,28 " fill="#FBFB77" filter="url(#f1kt1bwvz9l2au)" style="stroke: #A80036; stroke-width: 1.0;"/><path d="M978.5,28 L978.5,38 L988.5,38 L978.5,28 " fill="#FBFB77" style="stroke: #A80036; stroke-width: 1.0;"/><text fill="#000000" font-family="sans-serif" font-size="13" lengthAdjust="spacingAndGlyphs" textLength="210" x="763.5" y="46.897">- Decentralized validator consensus</text><text fill="#000000" font-family="sans-serif" font-size="13" lengthAdjust="spacingAndGlyphs" textLength="178" x="763.5" y="64.603">- No owner, no central control</text><!--MD5=[35febcc09a99142a27a91330d3793ce4]
link Partner to Governance Gateway--><path d="M1102.69,266.78 C1110.28,276.17 1117.82,286.38 1124,296.5 C1137.24,318.19 1148.15,345.18 1155.03,364.21 " fill="none" id="Partner-&gt;Governance Gateway" style="stroke: #A80036; stroke-width: 1.0;"/><polygon fill="#A80036" points="1156.86,369.35,1157.6226,359.5307,1155.1892,364.6374,1150.0825,362.204,1156.86,369.35" style="stroke: #A80036; stroke-width: 1.0;"/><text fill="#000000" font-family="sans-serif" font-size="13" lengthAdjust="spacingAndGlyphs" textLength="183" x="1134" y="311.397">requestOnboarding(DID, x509)</text><!--MD5=[9ee03a6eda7985620e97614e1ef896db]
link Governance Gateway to TelcoGovernance.sol--><path d="M1142.23,369.35 C1123.53,353.85 1094.51,332.86 1065,323.5 C1012.87,306.96 871.5,330.83 819,315.5 C803.12,310.86 801.81,303.87 787,296.5 C757.05,281.6 723.19,267.25 693.35,255.4 " fill="none" id="Governance Gateway-&gt;TelcoGovernance.sol" style="stroke: #A80036; stroke-width: 1.0;"/><polygon fill="#A80036" points="688.59,253.52,695.4981,260.5398,693.2422,255.3522,698.4297,253.0963,688.59,253.52" style="stroke: #A80036; stroke-width: 1.0;"/><text fill="#000000" font-family="sans-serif" font-size="13" lengthAdjust="spacingAndGlyphs" textLength="99" x="820" y="311.397">submitRequest()</text><!--MD5=[b248d1039c26daa7362e3c3a91323689]
link Validator to TelcoGovernance.sol--><path d="M613,92.7 C613,122.54 613,162.38 613,190.22 " fill="none" id="Validator-&gt;TelcoGovernance.sol" style="stroke: #A80036; stroke-width: 1.0;"/><polygon fill="#A80036" points="613,195.27,617,186.27,613,190.27,609,186.27,613,195.27" style="stroke: #A80036; stroke-width: 1.0;"/><text fill="#000000" font-family="sans-serif" font-size="13" lengthAdjust="spacingAndGlyphs" textLength="171" x="614" y="137.397">approve(), reject(), offboard()</text><!--MD5=[d0309043a4bd55870a1e06f7f4936032]
link TelcoGovernance.sol to AuditLog.sol--><path d="M586.55,253.72 C574.44,266.7 559.93,282.33 547,296.5 C529.09,316.13 509.19,338.32 493.48,355.93 " fill="none" id="TelcoGovernance.sol-&gt;AuditLog.sol" style="stroke: #A80036; stroke-width: 1.0;"/><polygon fill="#A80036" points="489.99,359.85,498.9676,355.7999,493.3198,356.1201,492.9997,350.4723,489.99,359.85" style="stroke: #A80036; stroke-width: 1.0;"/><text fill="#000000" font-family="sans-serif" font-size="13" lengthAdjust="spacingAndGlyphs" textLength="59" x="548" y="311.397">logAudit()</text><!--MD5=[da091c331f6edd21e5815efbf422347c]
link AuditLog.sol to DLT Ledger--><path d="M472.97,418.3 C479,439.72 487.29,469.2 493.64,491.75 " fill="none" id="AuditLog.sol-&gt;DLT Ledger" style="stroke: #A80036; stroke-width: 1.0;"/><polygon fill="#A80036" points="495.04,496.74,496.4405,486.9912,493.6796,491.9286,488.7422,489.1678,495.04,496.74" style="stroke: #A80036; stroke-width: 1.0;"/><text fill="#000000" font-family="sans-serif" font-size="13" lengthAdjust="spacingAndGlyphs" textLength="70" x="487" y="462.897">recordLog()</text><!--MD5=[815a76ebce6c9791075c03ad71a12cbe]
reverse link TelcoGovernance.sol to IdentityRegistry.sol--><path d="M615.06,273.52 C615.81,287.11 616.78,301.9 618,315.5 C619.32,330.15 621.29,346.41 623.05,359.81 " fill="none" id="TelcoGovernance.sol&lt;-IdentityRegistry.sol" style="stroke: #A80036; stroke-width: 1.0;"/><polygon fill="none" points="608.07,273.83,614.07,253.51,622.05,273.14,608.07,273.83" style="stroke: #A80036; stroke-width: 1.0;"/><!--MD5=[382b75bf524f45ab011199780cd36d03]
link IdentityRegistry.sol to DLT Ledger--><path d="M604.9,418.06 C592.88,432.94 577.54,451.33 563,467 C554.9,475.74 545.81,484.85 537.2,493.19 " fill="none" id="IdentityRegistry.sol-&gt;DLT Ledger" style="stroke: #A80036; stroke-width: 1.0;"/><polygon fill="#A80036" points="533.54,496.71,542.7951,493.3422,537.1392,493.2393,537.2421,487.5834,533.54,496.71" style="stroke: #A80036; stroke-width: 1.0;"/><text fill="#000000" font-family="sans-serif" font-size="13" lengthAdjust="spacingAndGlyphs" textLength="89" x="580" y="462.897">store DID/x509</text><!--MD5=[738176d0217cf05dc4a9a32300cc62e5]
link Partner to IdentityRegistry.sol--><path d="M1019.2,256.42 C981.42,281.8 933.2,313.82 928,315.5 C888.63,328.2 781.79,312.18 742,323.5 C716.82,330.66 691.19,344.3 670.53,357.19 " fill="none" id="Partner-&gt;IdentityRegistry.sol" style="stroke: #A80036; stroke-width: 1.0;"/><polygon fill="#A80036" points="666.2,359.93,675.9452,358.5048,670.4271,357.2595,671.6724,351.7414,666.2,359.93" style="stroke: #A80036; stroke-width: 1.0;"/><text fill="#000000" font-family="sans-serif" font-size="13" lengthAdjust="spacingAndGlyphs" textLength="154" x="958" y="311.397">registerIdentity(did, x509)</text><!--MD5=[1787f795ac2a3fb8887fbc4e65d057f9]
link Reader to IdentityRegistry.sol--><path d="M118.25,260.76 C154.6,281.35 203.77,305.24 251,315.5 C312.48,328.86 474.23,303.87 534,323.5 C555.17,330.45 575.83,343.9 592.28,356.72 " fill="none" id="Reader-&gt;IdentityRegistry.sol" style="stroke: #A80036; stroke-width: 1.0;"/><polygon fill="#A80036" points="596.37,359.97,591.8176,351.2364,592.4573,356.857,586.8367,357.4967,596.37,359.97" style="stroke: #A80036; stroke-width: 1.0;"/><text fill="#000000" font-family="sans-serif" font-size="13" lengthAdjust="spacingAndGlyphs" textLength="127" x="252" y="311.397">readDID(), readX509()</text><!--MD5=[d254bb5b755ec492aa33522f42dffc8d]
link TelcoGovernance.sol to MPC Key Storage--><path d="M617.25,253.67 C621.9,274.17 631.48,300.82 651,315.5 C674.96,333.53 689.64,313.76 718,323.5 C746.73,333.36 776.05,351.74 796.71,366.36 " fill="none" id="TelcoGovernance.sol-&gt;MPC Key Storage" style="stroke: #A80036; stroke-width: 1.0;"/><polygon fill="#A80036" points="800.99,369.42,795.9998,360.929,796.9242,366.5098,791.3434,367.4342,800.99,369.42" style="stroke: #A80036; stroke-width: 1.0;"/><text fill="#000000" font-family="sans-serif" font-size="13" lengthAdjust="spacingAndGlyphs" textLength="130" x="652" y="311.397">optional key handling</text><!--MD5=[2bf0241dd4d3ff0a54bfc28e19157197]
link TelcoGovernance.sol to Audit Authority--><path d="M533.88,248.16 C497.22,260.15 453.73,276.55 417,296.5 C380.9,316.1 343.87,345.79 320.45,365.99 " fill="none" id="TelcoGovernance.sol-&gt;Audit Authority" style="stroke: #A80036; stroke-width: 1.0;"/><polygon fill="#A80036" points="316.52,369.4,325.9335,366.504,320.29,366.1156,320.6784,360.4721,316.52,369.4" style="stroke: #A80036; stroke-width: 1.0;"/><text fill="#000000" font-family="sans-serif" font-size="13" lengthAdjust="spacingAndGlyphs" textLength="104" x="418" y="311.397">emit audit events</text><!--MD5=[0ff7b9cff7a23ce8e908cad972f4332c]
link Audit Authority to DLT Ledger--><path d="M304.9,408.58 C314.04,425.87 329.76,451.27 350,467 C367.13,480.32 387.66,490.85 408.03,499.07 " fill="none" id="Audit Authority-&gt;DLT Ledger" style="stroke: #A80036; stroke-width: 1.0;"/><polygon fill="#A80036" points="412.92,501.01,406.0232,493.9791,408.2708,499.1703,403.0796,501.4179,412.92,501.01" style="stroke: #A80036; stroke-width: 1.0;"/><text fill="#000000" font-family="sans-serif" font-size="13" lengthAdjust="spacingAndGlyphs" textLength="121" x="351" y="462.897">publish audit results</text><!--MD5=[43b3336db20e98696f68740e3b60c748]
@startuml
skinparam componentStyle rectangle

package "DLT Infrastructure" {
  [TelcoGovernance.sol] <<SmartContract>>
  [AuditLog.sol] <<Library>>
  [IdentityRegistry.sol] <<SmartContract>>
  [DLT Ledger] <<DistributedLedgerNode>>
}

package "Telco Participants (Equal Peers)" {
  [Governance Gateway]
  [Validator Node]
  [MPC Key Storage]
}

package "Independent Auditor" {
  [Audit Authority]
}

actor "New Member" as Partner
actor "Validator"
actor "Onboarded User" as Reader

Partner - -> [Governance Gateway] : requestOnboarding(DID, x509)
[Governance Gateway] - -> [TelcoGovernance.sol] : submitRequest()
Validator - -> [TelcoGovernance.sol] : approve(), reject(), offboard()
[TelcoGovernance.sol] - -> [AuditLog.sol] : logAudit()
[AuditLog.sol] - -> [DLT Ledger] : recordLog()

[TelcoGovernance.sol] <|- - [IdentityRegistry.sol]
[IdentityRegistry.sol] - -> [DLT Ledger] : store DID/x509

Partner - -> [IdentityRegistry.sol] : registerIdentity(did, x509)
note right of Partner
  Member generates DID/x.509 locally
  Writes to ledger after onboarding
end note

Reader - -> [IdentityRegistry.sol] : readDID(), readX509()
note right of Reader
  Access only if status == Onboarded
end note

[TelcoGovernance.sol] - -> [MPC Key Storage] : optional key handling
[TelcoGovernance.sol] - -> [Audit Authority] : emit audit events
[Audit Authority] - -> [DLT Ledger] : publish audit results

note right of [TelcoGovernance.sol]
  - Decentralized validator consensus
  - No owner, no central control
end note
@enduml

PlantUML version 1.2020.02(Sun Mar 01 11:22:07 CET 2020)
(GPL source distribution)
Java Runtime: OpenJDK Runtime Environment
JVM: OpenJDK 64-Bit Server VM
Java Version: 21.0.7+6-Ubuntu-0ubuntu125.04
Operating System: Linux
Default Encoding: UTF-8
Language: en
Country: US
--></g></svg>